<svg width="421" height="91" viewBox="0 0 421 91" fill="none" xmlns="http://www.w3.org/2000/svg">
<rect width="421" height="91" rx="45.5" fill="url(#paint0_linear_159_14)"/>
<rect x="9.50488" y="7.27612" width="401.99" height="74.8793" rx="37.4397" stroke="white" stroke-width="2"/>
<path d="M75.24 44.896C76.632 45.352 77.736 46.12 78.552 47.2C79.368 48.256 79.776 49.576 79.776 51.16C79.776 53.344 78.936 55.036 77.256 56.236C75.576 57.412 73.128 58 69.912 58H57.384V32.8H69.192C72.168 32.8 74.46 33.388 76.068 34.564C77.676 35.716 78.48 37.312 78.48 39.352C78.48 40.6 78.192 41.704 77.616 42.664C77.04 43.624 76.248 44.368 75.24 44.896ZM62.064 36.472V43.42H68.688C70.32 43.42 71.568 43.132 72.432 42.556C73.32 41.956 73.764 41.092 73.764 39.964C73.764 38.812 73.32 37.948 72.432 37.372C71.568 36.772 70.32 36.472 68.688 36.472H62.064ZM69.624 54.328C73.248 54.328 75.06 53.116 75.06 50.692C75.06 48.268 73.248 47.056 69.624 47.056H62.064V54.328H69.624ZM101.115 52.168H88.5147L86.0307 58H81.2067L92.5467 32.8H97.1547L108.531 58H103.635L101.115 52.168ZM99.5667 48.496L94.8147 37.48L90.0987 48.496H99.5667ZM123.048 58.36C120.504 58.36 118.2 57.808 116.136 56.704C114.096 55.576 112.488 54.028 111.312 52.06C110.16 50.092 109.584 47.872 109.584 45.4C109.584 42.928 110.172 40.708 111.348 38.74C112.524 36.772 114.132 35.236 116.172 34.132C118.236 33.004 120.54 32.44 123.084 32.44C125.148 32.44 127.032 32.8 128.736 33.52C130.44 34.24 131.88 35.284 133.056 36.652L130.032 39.496C128.208 37.528 125.964 36.544 123.3 36.544C121.572 36.544 120.024 36.928 118.656 37.696C117.288 38.44 116.22 39.484 115.452 40.828C114.684 42.172 114.3 43.696 114.3 45.4C114.3 47.104 114.684 48.628 115.452 49.972C116.22 51.316 117.288 52.372 118.656 53.14C120.024 53.884 121.572 54.256 123.3 54.256C125.964 54.256 128.208 53.26 130.032 51.268L133.056 54.148C131.88 55.516 130.428 56.56 128.7 57.28C126.996 58 125.112 58.36 123.048 58.36ZM146.216 47.452L142.22 51.556V58H137.54V32.8H142.22V45.724L154.676 32.8H159.932L149.348 44.068L160.58 58H155.108L146.216 47.452ZM178.828 36.76H170.476V32.8H191.86V36.76H183.508V58H178.828V36.76ZM206.793 58.36C204.225 58.36 201.909 57.808 199.845 56.704C197.781 55.576 196.161 54.028 194.985 52.06C193.809 50.068 193.221 47.848 193.221 45.4C193.221 42.952 193.809 40.744 194.985 38.776C196.161 36.784 197.781 35.236 199.845 34.132C201.909 33.004 204.225 32.44 206.793 32.44C209.361 32.44 211.677 33.004 213.741 34.132C215.805 35.236 217.425 36.772 218.601 38.74C219.777 40.708 220.365 42.928 220.365 45.4C220.365 47.872 219.777 50.092 218.601 52.06C217.425 54.028 215.805 55.576 213.741 56.704C211.677 57.808 209.361 58.36 206.793 58.36ZM206.793 54.256C208.473 54.256 209.985 53.884 211.329 53.14C212.673 52.372 213.729 51.316 214.497 49.972C215.265 48.604 215.649 47.08 215.649 45.4C215.649 43.72 215.265 42.208 214.497 40.864C213.729 39.496 212.673 38.44 211.329 37.696C209.985 36.928 208.473 36.544 206.793 36.544C205.113 36.544 203.601 36.928 202.257 37.696C200.913 38.44 199.857 39.496 199.089 40.864C198.321 42.208 197.937 43.72 197.937 45.4C197.937 47.08 198.321 48.604 199.089 49.972C199.857 51.316 200.913 52.372 202.257 53.14C203.601 53.884 205.113 54.256 206.793 54.256ZM240.387 36.76H232.035V32.8H253.419V36.76H245.067V58H240.387V36.76ZM268.351 58.36C265.783 58.36 263.467 57.808 261.403 56.704C259.339 55.576 257.719 54.028 256.543 52.06C255.367 50.068 254.779 47.848 254.779 45.4C254.779 42.952 255.367 40.744 256.543 38.776C257.719 36.784 259.339 35.236 261.403 34.132C263.467 33.004 265.783 32.44 268.351 32.44C270.919 32.44 273.235 33.004 275.299 34.132C277.363 35.236 278.983 36.772 280.159 38.74C281.335 40.708 281.923 42.928 281.923 45.4C281.923 47.872 281.335 50.092 280.159 52.06C278.983 54.028 277.363 55.576 275.299 56.704C273.235 57.808 270.919 58.36 268.351 58.36ZM268.351 54.256C270.031 54.256 271.543 53.884 272.887 53.14C274.231 52.372 275.287 51.316 276.055 49.972C276.823 48.604 277.207 47.08 277.207 45.4C277.207 43.72 276.823 42.208 276.055 40.864C275.287 39.496 274.231 38.44 272.887 37.696C271.543 36.928 270.031 36.544 268.351 36.544C266.671 36.544 265.159 36.928 263.815 37.696C262.471 38.44 261.415 39.496 260.647 40.864C259.879 42.208 259.495 43.72 259.495 45.4C259.495 47.08 259.879 48.604 260.647 49.972C261.415 51.316 262.471 52.372 263.815 53.14C265.159 53.884 266.671 54.256 268.351 54.256ZM297.252 32.8C299.436 32.8 301.332 33.16 302.94 33.88C304.572 34.6 305.82 35.632 306.684 36.976C307.548 38.32 307.98 39.916 307.98 41.764C307.98 43.588 307.548 45.184 306.684 46.552C305.82 47.896 304.572 48.928 302.94 49.648C301.332 50.368 299.436 50.728 297.252 50.728H291.564V58H286.884V32.8H297.252ZM297.036 46.768C299.076 46.768 300.624 46.336 301.68 45.472C302.736 44.608 303.264 43.372 303.264 41.764C303.264 40.156 302.736 38.92 301.68 38.056C300.624 37.192 299.076 36.76 297.036 36.76H291.564V46.768H297.036Z" fill="white"/>
<path d="M352.177 55.2434L367.631 41.4192L383.086 55.2434L387.243 51.5242L367.631 33.9808L348.019 51.5242L352.177 55.2434Z" fill="white"/>
<defs>
<linearGradient id="paint0_linear_159_14" x1="-1.09514e-06" y1="45.5" x2="421" y2="45.5" gradientUnits="userSpaceOnUse">
<stop stop-color="#FFBD81"/>
<stop offset="1" stop-color="#FF65FE"/>
</linearGradient>
</defs>
</svg>
