<svg width="371" height="91" viewBox="0 0 371 91" fill="none" xmlns="http://www.w3.org/2000/svg">
<rect width="371" height="91" rx="45.5" fill="url(#paint0_linear_406_5)"/>
<rect x="8" y="7" width="355" height="75" rx="37.5" stroke="white" stroke-width="2"/>
<path d="M62.496 58V36.76H54.144V32.8H75.528V36.76H67.176V58H62.496ZM79.0403 58V32.8H89.4083C91.6403 32.8 93.5483 33.16 95.1323 33.88C96.7403 34.6 97.9763 35.632 98.8403 36.976C99.7043 38.32 100.136 39.916 100.136 41.764C100.136 43.612 99.7043 45.208 98.8403 46.552C97.9763 47.872 96.7403 48.892 95.1323 49.612C93.5483 50.308 91.6403 50.656 89.4083 50.656H81.6323L83.7203 48.532V58H79.0403ZM95.5283 58L89.1563 48.856H94.1602L100.568 58H95.5283ZM83.7203 49.036L81.6323 46.804H89.1923C91.2563 46.804 92.8043 46.36 93.8362 45.472C94.8923 44.584 95.4203 43.348 95.4203 41.764C95.4203 40.156 94.8923 38.92 93.8362 38.056C92.8043 37.192 91.2563 36.76 89.1923 36.76H81.6323L83.7203 34.456V49.036ZM111.213 58V48.028L112.257 50.908L101.313 32.8H106.317L115.101 47.38H112.293L121.149 32.8H125.757L114.813 50.908L115.893 48.028V58H111.213ZM138.771 58V32.8H149.787C152.523 32.8 154.923 33.328 156.987 34.384C159.051 35.44 160.659 36.904 161.811 38.776C162.963 40.648 163.539 42.856 163.539 45.4C163.539 47.92 162.963 50.128 161.811 52.024C160.659 53.896 159.051 55.36 156.987 56.416C154.923 57.472 152.523 58 149.787 58H138.771ZM143.451 54.04H149.571C151.467 54.04 153.099 53.68 154.467 52.96C155.859 52.24 156.927 51.232 157.671 49.936C158.439 48.64 158.823 47.128 158.823 45.4C158.823 43.648 158.439 42.136 157.671 40.864C156.927 39.568 155.859 38.56 154.467 37.84C153.099 37.12 151.467 36.76 149.571 36.76H143.451V54.04ZM172.833 43.276H185.361V47.128H172.833V43.276ZM173.193 54.076H187.413V58H168.513V32.8H186.909V36.724H173.193V54.076ZM192.63 58V32.8H196.482L207.498 51.196H205.482L216.318 32.8H220.17L220.206 58H215.778L215.742 39.748H216.678L207.462 55.12H205.374L196.014 39.748H197.094V58H192.63ZM238.821 58.36C236.853 58.36 235.041 58.036 233.385 57.388C231.729 56.74 230.289 55.84 229.065 54.688C227.841 53.512 226.893 52.144 226.221 50.584C225.549 49 225.213 47.272 225.213 45.4C225.213 43.528 225.549 41.812 226.221 40.252C226.893 38.668 227.841 37.3 229.065 36.148C230.289 34.972 231.729 34.06 233.385 33.412C235.041 32.764 236.841 32.44 238.785 32.44C240.753 32.44 242.553 32.764 244.185 33.412C245.841 34.06 247.281 34.972 248.505 36.148C249.729 37.3 250.677 38.668 251.349 40.252C252.021 41.812 252.357 43.528 252.357 45.4C252.357 47.272 252.021 49 251.349 50.584C250.677 52.168 249.729 53.536 248.505 54.688C247.281 55.84 245.841 56.74 244.185 57.388C242.553 58.036 240.765 58.36 238.821 58.36ZM238.785 54.256C240.057 54.256 241.233 54.04 242.313 53.608C243.393 53.176 244.329 52.564 245.121 51.772C245.913 50.956 246.525 50.02 246.957 48.964C247.413 47.884 247.641 46.696 247.641 45.4C247.641 44.104 247.413 42.928 246.957 41.872C246.525 40.792 245.913 39.856 245.121 39.064C244.329 38.248 243.393 37.624 242.313 37.192C241.233 36.76 240.057 36.544 238.785 36.544C237.513 36.544 236.337 36.76 235.257 37.192C234.201 37.624 233.265 38.248 232.449 39.064C231.657 39.856 231.033 40.792 230.577 41.872C230.145 42.928 229.929 44.104 229.929 45.4C229.929 46.672 230.145 47.848 230.577 48.928C231.033 50.008 231.657 50.956 232.449 51.772C233.241 52.564 234.177 53.176 235.257 53.608C236.337 54.04 237.513 54.256 238.785 54.256Z" fill="white"/>
<path d="M301 29.1578L314.824 44.6121L301 60.0664L304.719 64.2241L322.263 44.6121L304.719 25L301 29.1578Z" fill="white"/>
<defs>
<linearGradient id="paint0_linear_406_5" x1="-9.65073e-07" y1="45.5" x2="371" y2="45.5" gradientUnits="userSpaceOnUse">
<stop stop-color="#2D848F"/>
<stop offset="0.994792" stop-color="#00D1FF"/>
</linearGradient>
</defs>
</svg>
