<svg width="340" height="58" viewBox="0 0 340 58" fill="none" xmlns="http://www.w3.org/2000/svg">
<rect width="340" height="58" rx="29" fill="url(#paint0_linear_102_3)"/>
<rect x="7.86865" y="5" width="324.263" height="47" rx="23.5" stroke="white" stroke-width="2"/>
<path d="M52.531 37.21C51.397 37.21 50.298 37.049 49.234 36.727C48.184 36.405 47.351 35.978 46.735 35.446L47.68 33.325C48.282 33.801 49.017 34.193 49.885 34.501C50.767 34.795 51.649 34.942 52.531 34.942C53.623 34.942 54.435 34.767 54.967 34.417C55.513 34.067 55.786 33.605 55.786 33.031C55.786 32.611 55.632 32.268 55.324 32.002C55.03 31.722 54.652 31.505 54.19 31.351C53.728 31.197 53.098 31.022 52.3 30.826C51.18 30.56 50.27 30.294 49.57 30.028C48.884 29.762 48.289 29.349 47.785 28.789C47.295 28.215 47.05 27.445 47.05 26.479C47.05 25.667 47.267 24.932 47.701 24.274C48.149 23.602 48.814 23.07 49.696 22.678C50.592 22.286 51.684 22.09 52.972 22.09C53.868 22.09 54.75 22.202 55.618 22.426C56.486 22.65 57.235 22.972 57.865 23.392L57.004 25.513C56.36 25.135 55.688 24.848 54.988 24.652C54.288 24.456 53.609 24.358 52.951 24.358C51.873 24.358 51.068 24.54 50.536 24.904C50.018 25.268 49.759 25.751 49.759 26.353C49.759 26.773 49.906 27.116 50.2 27.382C50.508 27.648 50.893 27.858 51.355 28.012C51.817 28.166 52.447 28.341 53.245 28.537C54.337 28.789 55.233 29.055 55.933 29.335C56.633 29.601 57.228 30.014 57.718 30.574C58.222 31.134 58.474 31.89 58.474 32.842C58.474 33.654 58.25 34.389 57.802 35.047C57.368 35.705 56.703 36.23 55.807 36.622C54.911 37.014 53.819 37.21 52.531 37.21ZM72.206 34.711V37H61.181V22.3H71.912V24.589H63.911V28.411H71.009V30.658H63.911V34.711H72.206ZM86.2744 34.711V37H75.2494V22.3H85.9804V24.589H77.9794V28.411H85.0774V30.658H77.9794V34.711H86.2744ZM101.988 37.21C100.49 37.21 99.1395 36.888 97.9355 36.244C96.7315 35.586 95.7865 34.683 95.1005 33.535C94.4145 32.373 94.0715 31.078 94.0715 29.65C94.0715 28.222 94.4145 26.934 95.1005 25.786C95.7865 24.624 96.7315 23.721 97.9355 23.077C99.1395 22.419 100.49 22.09 101.988 22.09C103.486 22.09 104.837 22.419 106.041 23.077C107.245 23.721 108.19 24.617 108.876 25.765C109.562 26.913 109.905 28.208 109.905 29.65C109.905 31.092 109.562 32.387 108.876 33.535C108.19 34.683 107.245 35.586 106.041 36.244C104.837 36.888 103.486 37.21 101.988 37.21ZM101.988 34.816C102.968 34.816 103.85 34.599 104.634 34.165C105.418 33.717 106.034 33.101 106.482 32.317C106.93 31.519 107.154 30.63 107.154 29.65C107.154 28.67 106.93 27.788 106.482 27.004C106.034 26.206 105.418 25.59 104.634 25.156C103.85 24.708 102.968 24.484 101.988 24.484C101.008 24.484 100.126 24.708 99.3425 25.156C98.5585 25.59 97.9425 26.206 97.4945 27.004C97.0465 27.788 96.8225 28.67 96.8225 29.65C96.8225 30.63 97.0465 31.519 97.4945 32.317C97.9425 33.101 98.5585 33.717 99.3425 34.165C100.126 34.599 101.008 34.816 101.988 34.816ZM119.12 37.21C117.09 37.21 115.508 36.643 114.374 35.509C113.24 34.361 112.673 32.723 112.673 30.595V22.3H115.403V30.49C115.403 33.374 116.649 34.816 119.141 34.816C121.619 34.816 122.858 33.374 122.858 30.49V22.3H125.546V30.595C125.546 32.723 124.979 34.361 123.845 35.509C122.725 36.643 121.15 37.21 119.12 37.21ZM138.988 37L135.985 32.695C135.859 32.709 135.67 32.716 135.418 32.716H132.1V37H129.37V22.3H135.418C136.692 22.3 137.798 22.51 138.736 22.93C139.688 23.35 140.416 23.952 140.92 24.736C141.424 25.52 141.676 26.451 141.676 27.529C141.676 28.635 141.403 29.587 140.857 30.385C140.325 31.183 139.555 31.778 138.547 32.17L141.928 37H138.988ZM138.925 27.529C138.925 26.591 138.617 25.87 138.001 25.366C137.385 24.862 136.482 24.61 135.292 24.61H132.1V30.469H135.292C136.482 30.469 137.385 30.217 138.001 29.713C138.617 29.195 138.925 28.467 138.925 27.529ZM172.017 22.3L167.145 37H164.247L160.614 26.122L156.918 37H153.999L149.127 22.3H151.962L155.616 33.472L159.417 22.3H161.937L165.654 33.535L169.413 22.3H172.017ZM185.266 34.711V37H174.241V22.3H184.972V24.589H176.971V28.411H184.069V30.658H176.971V34.711H185.266ZM198.725 29.356C199.537 29.622 200.181 30.07 200.657 30.7C201.133 31.316 201.371 32.086 201.371 33.01C201.371 34.284 200.881 35.271 199.901 35.971C198.921 36.657 197.493 37 195.617 37H188.309V22.3H195.197C196.933 22.3 198.27 22.643 199.208 23.329C200.146 24.001 200.615 24.932 200.615 26.122C200.615 26.85 200.447 27.494 200.111 28.054C199.775 28.614 199.313 29.048 198.725 29.356ZM191.039 24.442V28.495H194.903C195.855 28.495 196.583 28.327 197.087 27.991C197.605 27.641 197.864 27.137 197.864 26.479C197.864 25.807 197.605 25.303 197.087 24.967C196.583 24.617 195.855 24.442 194.903 24.442H191.039ZM195.449 34.858C197.563 34.858 198.62 34.151 198.62 32.737C198.62 31.323 197.563 30.616 195.449 30.616H191.039V34.858H195.449ZM210.333 22.3C211.607 22.3 212.713 22.51 213.651 22.93C214.603 23.35 215.331 23.952 215.835 24.736C216.339 25.52 216.591 26.451 216.591 27.529C216.591 28.593 216.339 29.524 215.835 30.322C215.331 31.106 214.603 31.708 213.651 32.128C212.713 32.548 211.607 32.758 210.333 32.758H207.015V37H204.285V22.3H210.333ZM210.207 30.448C211.397 30.448 212.3 30.196 212.916 29.692C213.532 29.188 213.84 28.467 213.84 27.529C213.84 26.591 213.532 25.87 212.916 25.366C212.3 24.862 211.397 24.61 210.207 24.61H207.015V30.448H210.207ZM228.112 33.598H220.762L219.313 37H216.499L223.114 22.3H225.802L232.438 37H229.582L228.112 33.598ZM227.209 31.456L224.437 25.03L221.686 31.456H227.209ZM244.141 29.482H246.724V35.341C245.968 35.943 245.086 36.405 244.078 36.727C243.07 37.049 242.034 37.21 240.97 37.21C239.472 37.21 238.121 36.888 236.917 36.244C235.713 35.586 234.768 34.683 234.082 33.535C233.396 32.387 233.053 31.092 233.053 29.65C233.053 28.208 233.396 26.913 234.082 25.765C234.768 24.617 235.713 23.721 236.917 23.077C238.135 22.419 239.5 22.09 241.012 22.09C242.244 22.09 243.364 22.293 244.372 22.699C245.38 23.105 246.227 23.7 246.913 24.484L245.191 26.164C244.071 25.044 242.72 24.484 241.138 24.484C240.102 24.484 239.178 24.701 238.366 25.135C237.568 25.569 236.938 26.178 236.476 26.962C236.028 27.746 235.804 28.642 235.804 29.65C235.804 30.63 236.028 31.512 236.476 32.296C236.938 33.08 237.568 33.696 238.366 34.144C239.178 34.592 240.095 34.816 241.117 34.816C242.265 34.816 243.273 34.564 244.141 34.06V29.482ZM261.35 34.711V37H250.325V22.3H261.056V24.589H253.055V28.411H260.153V30.658H253.055V34.711H261.35Z" fill="white"/>
<path d="M294.209 18.65L305.373 28.5L294.209 38.35L297.213 41L311.381 28.5L297.213 16L294.209 18.65Z" fill="white"/>
<defs>
<linearGradient id="paint0_linear_102_3" x1="-8.84434e-07" y1="29" x2="340" y2="29" gradientUnits="userSpaceOnUse">
<stop stop-color="#FF63FE"/>
<stop offset="1" stop-color="#FFC372"/>
</linearGradient>
</defs>
</svg>
