<svg width="396" height="108" viewBox="0 0 396 108" fill="none" xmlns="http://www.w3.org/2000/svg">
<path fill-rule="evenodd" clip-rule="evenodd" d="M74.6685 99.7513H100.271L69.1822 0H31.2767L0.1875 99.7513H24.7928L31.1104 75.9773H68.3509L74.6685 99.7513ZM38.5918 47.8806C41.2518 37.9055 43.9118 27.5979 46.0731 17.789H53.887C55.882 27.4316 58.3758 38.0718 61.0358 47.8806L64.3608 60.3495H35.2667L38.5918 47.8806ZM134.918 58.1883C134.918 47.5481 141.734 39.2355 151.876 39.2355C158.858 39.2355 162.516 43.8906 162.516 51.8707V99.7513H185.292V58.1883C185.292 47.5481 191.776 39.2355 202.084 39.2355C209.066 39.2355 212.89 43.8906 212.89 51.8707V99.7513H234.664C226.505 89.4177 221.635 76.3667 221.635 62.1784C221.635 49.8002 225.342 38.2877 231.705 28.69C228.028 22.2295 221.801 18.7865 213.555 18.7865C201.086 18.7865 192.275 28.0966 187.287 41.3968H183.297C182.3 26.7666 176.149 18.7865 163.846 18.7865C151.876 18.7865 142.566 27.7641 137.246 41.0643H133.754V20.9478H112.308V99.7513H134.918V58.1883ZM342.957 64.4658C342.985 63.7068 343 62.9442 343 62.1784C343 49.5115 339.118 37.7512 332.481 28.0216C337.693 22.0167 347.064 18.7865 360.783 18.7865C383.892 18.7865 389.711 27.2654 392.371 40.3993L373.751 43.8906C372.088 36.0767 368.597 33.5829 359.786 33.5829C351.806 33.5829 347.982 36.243 347.982 41.2305C347.982 45.5531 350.476 48.8782 363.277 51.5382C389.711 57.1908 395.031 65.1709 395.031 77.806C395.031 93.1012 385.389 102.079 361.448 102.079C347.543 102.079 338.735 99.6416 333.146 95.3391C337.116 89.2666 340.027 82.4393 341.617 75.1192L343.826 74.6472C345.987 82.9599 351.806 86.9499 361.781 86.9499C369.761 86.9499 373.751 84.6224 373.751 79.136C373.751 73.816 370.426 71.1559 355.629 68.1634C350.651 67.0658 346.458 65.8572 342.957 64.4658Z" fill="white"/>
<circle cx="282.733" cy="63.5915" r="43.6412" fill="#FF8585"/>
</svg>
