<svg width="478" height="107" viewBox="0 0 478 107" fill="none" xmlns="http://www.w3.org/2000/svg">
<path d="M23.52 43.28V61.04H54.624V73.52H23.52V98H7.968V30.8H58.752V43.28H23.52ZM72.087 46.352H87.063V98H72.087V46.352ZM79.575 39.152C76.823 39.152 74.583 38.352 72.855 36.752C71.127 35.152 70.263 33.168 70.263 30.8C70.263 28.432 71.127 26.448 72.855 24.848C74.583 23.248 76.823 22.448 79.575 22.448C82.327 22.448 84.567 23.216 86.295 24.752C88.023 26.288 88.887 28.208 88.887 30.512C88.887 33.008 88.023 35.088 86.295 36.752C84.567 38.352 82.327 39.152 79.575 39.152ZM139.074 95.504C137.602 96.592 135.778 97.424 133.602 98C131.49 98.512 129.25 98.768 126.882 98.768C120.738 98.768 115.97 97.2 112.578 94.064C109.25 90.928 107.586 86.32 107.586 80.24V59.024H99.618V47.504H107.586V34.928H122.562V47.504H135.426V59.024H122.562V80.048C122.562 82.224 123.106 83.92 124.194 85.136C125.346 86.288 126.946 86.864 128.994 86.864C131.362 86.864 133.378 86.224 135.042 84.944L139.074 95.504ZM175.417 99.152C170.105 99.152 164.953 98.448 159.961 97.04C155.033 95.568 151.065 93.68 148.057 91.376L153.337 79.664C156.217 81.776 159.641 83.472 163.609 84.752C167.577 86.032 171.545 86.672 175.513 86.672C179.929 86.672 183.193 86.032 185.305 84.752C187.417 83.408 188.473 81.648 188.473 79.472C188.473 77.872 187.833 76.56 186.553 75.536C185.337 74.448 183.737 73.584 181.753 72.944C179.833 72.304 177.209 71.6 173.881 70.832C168.761 69.616 164.569 68.4 161.305 67.184C158.041 65.968 155.225 64.016 152.857 61.328C150.553 58.64 149.401 55.056 149.401 50.576C149.401 46.672 150.457 43.152 152.569 40.016C154.681 36.816 157.849 34.288 162.073 32.432C166.361 30.576 171.577 29.648 177.721 29.648C182.009 29.648 186.201 30.16 190.297 31.184C194.393 32.208 197.977 33.68 201.049 35.6L196.249 47.408C190.041 43.888 183.833 42.128 177.625 42.128C173.273 42.128 170.041 42.832 167.929 44.24C165.881 45.648 164.857 47.504 164.857 49.808C164.857 52.112 166.041 53.84 168.409 54.992C170.841 56.08 174.521 57.168 179.449 58.256C184.569 59.472 188.761 60.688 192.025 61.904C195.289 63.12 198.073 65.04 200.377 67.664C202.745 70.288 203.929 73.84 203.929 78.32C203.929 82.16 202.841 85.68 200.665 88.88C198.553 92.016 195.353 94.512 191.065 96.368C186.777 98.224 181.561 99.152 175.417 99.152ZM239.131 45.584C247.131 45.584 253.276 47.504 257.564 51.344C261.852 55.12 263.996 60.848 263.996 68.528V98H249.979V91.568C247.163 96.368 241.915 98.768 234.235 98.768C230.267 98.768 226.811 98.096 223.867 96.752C220.987 95.408 218.779 93.552 217.243 91.184C215.707 88.816 214.939 86.128 214.939 83.12C214.939 78.32 216.731 74.544 220.315 71.792C223.963 69.04 229.563 67.664 237.115 67.664H249.019C249.019 64.4 248.027 61.904 246.043 60.176C244.059 58.384 241.083 57.488 237.115 57.488C234.363 57.488 231.643 57.936 228.955 58.832C226.331 59.664 224.091 60.816 222.235 62.288L216.859 51.824C219.675 49.84 223.035 48.304 226.939 47.216C230.907 46.128 234.971 45.584 239.131 45.584ZM237.979 88.688C240.539 88.688 242.811 88.112 244.795 86.96C246.779 85.744 248.187 83.984 249.019 81.68V76.4H238.747C232.603 76.4 229.531 78.416 229.531 82.448C229.531 84.368 230.267 85.904 231.739 87.056C233.275 88.144 235.355 88.688 237.979 88.688ZM312.878 45.584C317.678 45.584 322.03 46.704 325.934 48.944C329.902 51.12 333.006 54.224 335.246 58.256C337.486 62.224 338.606 66.864 338.606 72.176C338.606 77.488 337.486 82.16 335.246 86.192C333.006 90.16 329.902 93.264 325.934 95.504C322.03 97.68 317.678 98.768 312.878 98.768C305.774 98.768 300.366 96.528 296.654 92.048V98H282.35V26.768H297.326V51.824C301.102 47.664 306.286 45.584 312.878 45.584ZM310.286 86.48C314.126 86.48 317.262 85.2 319.694 82.64C322.19 80.016 323.438 76.528 323.438 72.176C323.438 67.824 322.19 64.368 319.694 61.808C317.262 59.184 314.126 57.872 310.286 57.872C306.446 57.872 303.278 59.184 300.781 61.808C298.35 64.368 297.134 67.824 297.134 72.176C297.134 76.528 298.35 80.016 300.781 82.64C303.278 85.2 306.446 86.48 310.286 86.48ZM404.023 72.368C404.023 72.56 403.927 73.904 403.735 76.4H364.663C365.367 79.6 367.031 82.128 369.655 83.984C372.279 85.84 375.543 86.768 379.447 86.768C382.135 86.768 384.503 86.384 386.551 85.616C388.663 84.784 390.615 83.504 392.407 81.776L400.375 90.416C395.511 95.984 388.407 98.768 379.063 98.768C373.239 98.768 368.087 97.648 363.607 95.408C359.127 93.104 355.671 89.936 353.239 85.904C350.807 81.872 349.591 77.296 349.591 72.176C349.591 67.12 350.775 62.576 353.143 58.544C355.575 54.448 358.871 51.28 363.031 49.04C367.255 46.736 371.959 45.584 377.143 45.584C382.199 45.584 386.775 46.672 390.871 48.848C394.967 51.024 398.167 54.16 400.471 58.256C402.839 62.288 404.023 66.992 404.023 72.368ZM377.239 56.912C373.847 56.912 370.999 57.872 368.695 59.792C366.391 61.712 364.983 64.336 364.471 67.664H389.911C389.399 64.4 387.991 61.808 385.687 59.888C383.383 57.904 380.567 56.912 377.239 56.912ZM433.097 53.168C434.889 50.672 437.289 48.784 440.297 47.504C443.369 46.224 446.889 45.584 450.857 45.584V59.408C449.193 59.28 448.073 59.216 447.497 59.216C443.209 59.216 439.849 60.432 437.417 62.864C434.985 65.232 433.769 68.816 433.769 73.616V98H418.793V46.352H433.097V53.168Z" fill="white"/>
<path d="M28.52 38.28V56.04H59.624V68.52H28.52V93H12.968V25.8H63.752V38.28H28.52ZM77.087 41.352H92.063V93H77.087V41.352ZM84.575 34.152C81.823 34.152 79.583 33.352 77.855 31.752C76.127 30.152 75.263 28.168 75.263 25.8C75.263 23.432 76.127 21.448 77.855 19.848C79.583 18.248 81.823 17.448 84.575 17.448C87.327 17.448 89.567 18.216 91.295 19.752C93.023 21.288 93.887 23.208 93.887 25.512C93.887 28.008 93.023 30.088 91.295 31.752C89.567 33.352 87.327 34.152 84.575 34.152ZM144.074 90.504C142.602 91.592 140.778 92.424 138.602 93C136.49 93.512 134.25 93.768 131.882 93.768C125.738 93.768 120.97 92.2 117.578 89.064C114.25 85.928 112.586 81.32 112.586 75.24V54.024H104.618V42.504H112.586V29.928H127.562V42.504H140.426V54.024H127.562V75.048C127.562 77.224 128.106 78.92 129.194 80.136C130.346 81.288 131.946 81.864 133.994 81.864C136.362 81.864 138.378 81.224 140.042 79.944L144.074 90.504Z" fill="#D7A057"/>
<path d="M180.417 94.152C175.105 94.152 169.953 93.448 164.961 92.04C160.033 90.568 156.065 88.68 153.057 86.376L158.337 74.664C161.217 76.776 164.641 78.472 168.609 79.752C172.577 81.032 176.545 81.672 180.513 81.672C184.929 81.672 188.193 81.032 190.305 79.752C192.417 78.408 193.473 76.648 193.473 74.472C193.473 72.872 192.833 71.56 191.553 70.536C190.337 69.448 188.737 68.584 186.753 67.944C184.833 67.304 182.209 66.6 178.881 65.832C173.761 64.616 169.569 63.4 166.305 62.184C163.041 60.968 160.225 59.016 157.857 56.328C155.553 53.64 154.401 50.056 154.401 45.576C154.401 41.672 155.457 38.152 157.569 35.016C159.681 31.816 162.849 29.288 167.073 27.432C171.361 25.576 176.577 24.648 182.721 24.648C187.009 24.648 191.201 25.16 195.297 26.184C199.393 27.208 202.977 28.68 206.049 30.6L201.249 42.408C195.041 38.888 188.833 37.128 182.625 37.128C178.273 37.128 175.041 37.832 172.929 39.24C170.881 40.648 169.857 42.504 169.857 44.808C169.857 47.112 171.041 48.84 173.409 49.992C175.841 51.08 179.521 52.168 184.449 53.256C189.569 54.472 193.761 55.688 197.025 56.904C200.289 58.12 203.073 60.04 205.377 62.664C207.745 65.288 208.929 68.84 208.929 73.32C208.929 77.16 207.841 80.68 205.665 83.88C203.553 87.016 200.353 89.512 196.065 91.368C191.777 93.224 186.561 94.152 180.417 94.152ZM244.131 40.584C252.131 40.584 258.276 42.504 262.564 46.344C266.852 50.12 268.996 55.848 268.996 63.528V93H254.979V86.568C252.163 91.368 246.915 93.768 239.235 93.768C235.267 93.768 231.811 93.096 228.867 91.752C225.987 90.408 223.779 88.552 222.243 86.184C220.707 83.816 219.939 81.128 219.939 78.12C219.939 73.32 221.731 69.544 225.315 66.792C228.963 64.04 234.563 62.664 242.115 62.664H254.019C254.019 59.4 253.027 56.904 251.043 55.176C249.059 53.384 246.083 52.488 242.115 52.488C239.363 52.488 236.643 52.936 233.955 53.832C231.331 54.664 229.091 55.816 227.235 57.288L221.859 46.824C224.675 44.84 228.035 43.304 231.939 42.216C235.907 41.128 239.971 40.584 244.131 40.584ZM242.979 83.688C245.539 83.688 247.811 83.112 249.795 81.96C251.779 80.744 253.187 78.984 254.019 76.68V71.4H243.747C237.603 71.4 234.531 73.416 234.531 77.448C234.531 79.368 235.267 80.904 236.739 82.056C238.275 83.144 240.355 83.688 242.979 83.688ZM317.878 40.584C322.678 40.584 327.03 41.704 330.934 43.944C334.902 46.12 338.006 49.224 340.246 53.256C342.486 57.224 343.606 61.864 343.606 67.176C343.606 72.488 342.486 77.16 340.246 81.192C338.006 85.16 334.902 88.264 330.934 90.504C327.03 92.68 322.678 93.768 317.878 93.768C310.774 93.768 305.366 91.528 301.654 87.048V93H287.35V21.768H302.326V46.824C306.102 42.664 311.286 40.584 317.878 40.584ZM315.286 81.48C319.126 81.48 322.262 80.2 324.694 77.64C327.19 75.016 328.438 71.528 328.438 67.176C328.438 62.824 327.19 59.368 324.694 56.808C322.262 54.184 319.126 52.872 315.286 52.872C311.446 52.872 308.278 54.184 305.781 56.808C303.35 59.368 302.134 62.824 302.134 67.176C302.134 71.528 303.35 75.016 305.781 77.64C308.278 80.2 311.446 81.48 315.286 81.48ZM409.023 67.368C409.023 67.56 408.927 68.904 408.735 71.4H369.663C370.367 74.6 372.031 77.128 374.655 78.984C377.279 80.84 380.543 81.768 384.447 81.768C387.135 81.768 389.503 81.384 391.551 80.616C393.663 79.784 395.615 78.504 397.407 76.776L405.375 85.416C400.511 90.984 393.407 93.768 384.063 93.768C378.239 93.768 373.087 92.648 368.607 90.408C364.127 88.104 360.671 84.936 358.239 80.904C355.807 76.872 354.591 72.296 354.591 67.176C354.591 62.12 355.775 57.576 358.143 53.544C360.575 49.448 363.871 46.28 368.031 44.04C372.255 41.736 376.959 40.584 382.143 40.584C387.199 40.584 391.775 41.672 395.871 43.848C399.967 46.024 403.167 49.16 405.471 53.256C407.839 57.288 409.023 61.992 409.023 67.368ZM382.239 51.912C378.847 51.912 375.999 52.872 373.695 54.792C371.391 56.712 369.983 59.336 369.471 62.664H394.911C394.399 59.4 392.991 56.808 390.687 54.888C388.383 52.904 385.567 51.912 382.239 51.912ZM438.097 48.168C439.889 45.672 442.289 43.784 445.297 42.504C448.369 41.224 451.889 40.584 455.857 40.584V54.408C454.193 54.28 453.073 54.216 452.497 54.216C448.209 54.216 444.849 55.432 442.417 57.864C439.985 60.232 438.769 63.816 438.769 68.616V93H423.793V41.352H438.097V48.168Z" fill="#DC86DC"/>
</svg>
